<svg width="800" height="400" viewBox="0 0 800 400" xmlns="http://www.w3.org/2000/svg"><mask id="satori_om-id"><rect x="0" y="0" width="800" height="400" fill="#fff"/></mask><rect x="0" y="0" width="800" height="400" fill="#fff"/><clipPath id="satori_cp-id-0"><rect x="50" y="105" width="75" height="65"/></clipPath><mask id="satori_om-id-0"><rect x="50" y="105" width="75" height="65" fill="#fff"/></mask><image x="50" y="105" width="75" height="65" href="data:image/svg+xml;utf8,%3Csvg  fill=%22%23000%22 xmlns=%22http://www.w3.org/2000/svg%22 width=%22NaN%22 height=%22null%22 viewBox=%220 0 75 65%22%3E%3Cpath d=%22M37.59.25l36.95 64H.64l36.95-64z%22%3E%3C/path%3E%3C/svg%3E" preserveAspectRatio="none" clip-path="url(#satori_cp-id-0)" mask="url(#satori_om-id-0)"/><mask id="satori_om-id-0-0"><rect x="50" y="105" width="0" height="65" fill="#fff"/></mask><mask id="satori_om-id-1"><rect x="50" y="190" width="700" height="39" fill="#fff"/></mask><path fill="black" d="M62.1 220.0L57.3 220.0L50.6 196.7L56.0 196.7L59.8 212.8L60.0 212.8L64.3 196.7L68.9 196.7L73.1 212.9L73.3 212.9L77.2 196.7L82.5 196.7L75.9 220.0L71.1 220.0L66.7 204.7L66.5 204.7L62.1 220.0ZM91.1 220.3L91.1 220.3Q88.5 220.3 86.5 219.2Q84.6 218.1 83.5 216.1Q82.5 214.1 82.5 211.3L82.5 211.3Q82.5 208.6 83.5 206.6Q84.6 204.5 86.5 203.4Q88.4 202.3 91.0 202.3L91.0 202.3Q92.7 202.3 94.2 202.8Q95.7 203.4 96.8 204.5Q97.9 205.6 98.5 207.2Q99.2 208.9 99.2 211.1L99.2 211.1L99.2 212.5L84.4 212.5L84.4 209.5L94.6 209.5Q94.6 208.4 94.1 207.6Q93.7 206.8 92.9 206.3Q92.1 205.9 91.0 205.9L91.0 205.9Q89.9 205.9 89.1 206.4Q88.2 206.9 87.8 207.7Q87.3 208.6 87.3 209.6L87.3 209.6L87.3 212.5Q87.3 213.8 87.8 214.7Q88.2 215.7 89.1 216.2Q90.0 216.7 91.2 216.7L91.2 216.7Q92.0 216.7 92.7 216.5Q93.4 216.2 93.9 215.8Q94.3 215.3 94.6 214.7L94.6 214.7L99.1 215.0Q98.7 216.6 97.7 217.8Q96.6 219.0 95.0 219.6Q93.3 220.3 91.1 220.3ZM107.2 220.0L102.4 220.0L102.4 196.7L107.3 196.7L107.3 205.4L107.4 205.4Q107.7 204.7 108.3 204.0Q108.9 203.3 109.9 202.8Q110.9 202.3 112.4 202.3L112.4 202.3Q114.3 202.3 115.9 203.3Q117.5 204.3 118.5 206.3Q119.4 208.2 119.4 211.2L119.4 211.2Q119.4 214.2 118.5 216.2Q117.6 218.2 115.9 219.2Q114.3 220.2 112.4 220.2L112.4 220.2Q110.9 220.2 110.0 219.8Q109.0 219.3 108.4 218.6Q107.7 217.9 107.4 217.2L107.4 217.2L107.2 217.2L107.2 220.0ZM107.1 211.2L107.1 211.2Q107.1 212.8 107.6 213.9Q108.0 215.1 108.8 215.7Q109.6 216.4 110.8 216.4L110.8 216.4Q112 216.4 112.8 215.7Q113.6 215.1 114.1 213.9Q114.5 212.7 114.5 211.2L114.5 211.2Q114.5 209.7 114.1 208.6Q113.6 207.4 112.8 206.8Q112.0 206.1 110.8 206.1L110.8 206.1Q109.6 206.1 108.8 206.7Q108.0 207.4 107.6 208.5Q107.1 209.7 107.1 211.2ZM143.3 204.8L143.3 204.8L138.3 204.8Q138.2 203.9 137.7 203.1Q137.3 202.3 136.7 201.8Q136 201.3 135.1 201.0Q134.3 200.7 133.3 200.7L133.3 200.7Q131.5 200.7 130.1 201.6Q128.8 202.5 128.1 204.2Q127.3 205.9 127.3 208.3L127.3 208.3Q127.3 210.8 128.1 212.5Q128.8 214.2 130.1 215.1Q131.5 215.9 133.3 215.9L133.3 215.9Q134.2 215.9 135.1 215.7Q135.9 215.4 136.6 214.9Q137.3 214.4 137.7 213.7Q138.1 212.9 138.3 212.0L138.3 212.0L143.3 212.0Q143.1 213.6 142.3 215.1Q141.5 216.6 140.3 217.8Q139.0 218.9 137.2 219.6Q135.4 220.3 133.2 220.3L133.2 220.3Q130.1 220.3 127.6 218.9Q125.2 217.5 123.7 214.8Q122.3 212.1 122.3 208.3L122.3 208.3Q122.3 204.5 123.8 201.8Q125.2 199.2 127.6 197.8Q130.1 196.4 133.2 196.4L133.2 196.4Q135.2 196.4 136.9 196.9Q138.7 197.5 140 198.6Q141.3 199.7 142.2 201.2Q143.0 202.8 143.3 204.8ZM146.7 196.7L151.6 196.7L151.6 220.0L146.7 220.0L146.7 196.7ZM163.3 220.3L163.3 220.3Q160.7 220.3 158.7 219.2Q156.8 218.0 155.8 216.0Q154.7 214.0 154.7 211.3L154.7 211.3Q154.7 208.6 155.8 206.6Q156.8 204.5 158.7 203.4Q160.7 202.3 163.3 202.3L163.3 202.3Q166.0 202.3 167.9 203.4Q169.8 204.5 170.9 206.6Q171.9 208.6 171.9 211.3L171.9 211.3Q171.9 214.0 170.9 216.0Q169.8 218.0 167.9 219.2Q166.0 220.3 163.3 220.3ZM163.3 216.5L163.3 216.5Q164.5 216.5 165.3 215.9Q166.1 215.2 166.6 214.0Q167.0 212.8 167.0 211.3L167.0 211.3Q167.0 209.7 166.6 208.5Q166.1 207.3 165.3 206.7Q164.5 206.0 163.3 206.0L163.3 206.0Q162.1 206.0 161.3 206.7Q160.5 207.3 160.1 208.5Q159.6 209.7 159.6 211.3L159.6 211.3Q159.6 212.8 160.1 214.0Q160.5 215.2 161.3 215.9Q162.1 216.5 163.3 216.5ZM179.9 209.9L179.9 209.9L179.9 220.0L175.1 220.0L175.1 202.5L179.7 202.5L179.7 205.6L179.9 205.6Q180.5 204.1 181.8 203.2Q183.2 202.3 185.1 202.3L185.1 202.3Q186.9 202.3 188.3 203.1Q189.6 203.9 190.4 205.3Q191.1 206.8 191.1 208.8L191.1 208.8L191.1 220.0L186.3 220.0L186.3 209.7Q186.3 208.1 185.5 207.2Q184.7 206.3 183.2 206.3L183.2 206.3Q182.2 206.3 181.5 206.7Q180.7 207.1 180.3 207.9Q179.9 208.7 179.9 209.9ZM202.9 220.3L202.9 220.3Q200.2 220.3 198.3 219.2Q196.3 218.1 195.3 216.1Q194.3 214.1 194.3 211.3L194.3 211.3Q194.3 208.6 195.3 206.6Q196.3 204.5 198.2 203.4Q200.1 202.3 202.7 202.3L202.7 202.3Q204.4 202.3 205.9 202.8Q207.4 203.4 208.6 204.5Q209.7 205.6 210.3 207.2Q210.9 208.9 210.9 211.1L210.9 211.1L210.9 212.5L196.2 212.5L196.2 209.5L206.4 209.5Q206.4 208.4 205.9 207.6Q205.5 206.8 204.7 206.3Q203.9 205.9 202.8 205.9L202.8 205.9Q201.7 205.9 200.8 206.4Q200 206.9 199.5 207.7Q199.0 208.6 199.0 209.6L199.0 209.6L199.0 212.5Q199.0 213.8 199.5 214.7Q200 215.7 200.9 216.2Q201.8 216.7 203.0 216.7L203.0 216.7Q203.8 216.7 204.5 216.5Q205.1 216.2 205.6 215.8Q206.1 215.3 206.3 214.7L206.3 214.7L210.8 215.0Q210.5 216.6 209.4 217.8Q208.4 219.0 206.7 219.6Q205.1 220.3 202.9 220.3ZM228.6 207.5L228.6 207.5L224.2 207.7Q224.1 207.2 223.7 206.7Q223.3 206.3 222.7 206.0Q222.1 205.7 221.3 205.7L221.3 205.7Q220.1 205.7 219.4 206.2Q218.6 206.6 218.6 207.4L218.6 207.4Q218.6 208.1 219.1 208.5Q219.6 208.9 220.8 209.2L220.8 209.2L224.0 209.8Q226.5 210.3 227.8 211.5Q229 212.7 229 214.5L229 214.5Q229 216.3 228.0 217.6Q227.0 218.8 225.2 219.6Q223.5 220.3 221.2 220.3L221.2 220.3Q217.8 220.3 215.7 218.8Q213.7 217.4 213.3 214.9L213.3 214.9L218.1 214.6Q218.3 215.7 219.1 216.3Q219.9 216.8 221.2 216.8L221.2 216.8Q222.5 216.8 223.3 216.3Q224.1 215.8 224.1 215.0L224.1 215.0Q224.1 214.4 223.5 213.9Q223.0 213.5 221.8 213.3L221.8 213.3L218.8 212.7Q216.3 212.2 215.0 210.9Q213.8 209.7 213.8 207.7L213.8 207.7Q213.8 206.0 214.7 204.8Q215.6 203.6 217.3 202.9Q218.9 202.3 221.2 202.3L221.2 202.3Q224.5 202.3 226.4 203.7Q228.3 205.1 228.6 207.5Z M249.3 220.3L249.3 220.3Q246.6 220.3 244.7 219.2Q242.8 218.0 241.7 216.0Q240.7 214.0 240.7 211.3L240.7 211.3Q240.7 208.6 241.7 206.6Q242.8 204.5 244.7 203.4Q246.6 202.3 249.3 202.3L249.3 202.3Q251.9 202.3 253.8 203.4Q255.8 204.5 256.8 206.6Q257.8 208.6 257.8 211.3L257.8 211.3Q257.8 214.0 256.8 216.0Q255.8 218.0 253.8 219.2Q251.9 220.3 249.3 220.3ZM249.3 216.5L249.3 216.5Q250.5 216.5 251.3 215.9Q252.1 215.2 252.5 214.0Q252.9 212.8 252.9 211.3L252.9 211.3Q252.9 209.7 252.5 208.5Q252.1 207.3 251.3 206.7Q250.5 206.0 249.3 206.0L249.3 206.0Q248.1 206.0 247.2 206.7Q246.4 207.3 246.0 208.5Q245.6 209.7 245.6 211.3L245.6 211.3Q245.6 212.8 246.0 214.0Q246.4 215.2 247.2 215.9Q248.1 216.5 249.3 216.5ZM259.6 202.5L270.4 202.5L270.4 206.1L259.6 206.1L259.6 202.5ZM266.9 220.0L262.1 220.0L262.1 201.2Q262.1 199.3 262.8 198.1Q263.6 196.8 264.9 196.2Q266.2 195.6 267.8 195.6L267.8 195.6Q268.9 195.6 269.8 195.8Q270.8 195.9 271.2 196.1L271.2 196.1L270.4 199.7Q270.1 199.6 269.7 199.5Q269.3 199.5 268.8 199.5L268.8 199.5Q267.8 199.5 267.3 199.9Q266.9 200.4 266.9 201.3L266.9 201.3L266.9 220.0Z M290.9 220.0L286.1 220.0L279.4 196.7L284.8 196.7L288.7 212.8L288.9 212.8L293.1 196.7L297.7 196.7L301.9 212.9L302.1 212.9L306.0 196.7L311.4 196.7L304.7 220.0L299.9 220.0L295.5 204.7L295.3 204.7L290.9 220.0ZM320.0 220.3L320.0 220.3Q317.3 220.3 315.3 219.2Q313.4 218.1 312.4 216.1Q311.3 214.1 311.3 211.3L311.3 211.3Q311.3 208.6 312.4 206.6Q313.4 204.5 315.3 203.4Q317.2 202.3 319.8 202.3L319.8 202.3Q321.5 202.3 323.0 202.8Q324.5 203.4 325.6 204.5Q326.7 205.6 327.4 207.2Q328.0 208.9 328.0 211.1L328.0 211.1L328.0 212.5L313.3 212.5L313.3 209.5L323.4 209.5Q323.4 208.4 323.0 207.6Q322.5 206.8 321.7 206.3Q320.9 205.9 319.9 205.9L319.9 205.9Q318.8 205.9 317.9 206.4Q317.1 206.9 316.6 207.7Q316.1 208.6 316.1 209.6L316.1 209.6L316.1 212.5Q316.1 213.8 316.6 214.7Q317.1 215.7 318.0 216.2Q318.8 216.7 320.1 216.7L320.1 216.7Q320.9 216.7 321.5 216.5Q322.2 216.2 322.7 215.8Q323.2 215.3 323.4 214.7L323.4 214.7L327.9 215.0Q327.5 216.6 326.5 217.8Q325.4 219.0 323.8 219.6Q322.1 220.3 320.0 220.3ZM336.0 220.0L331.2 220.0L331.2 196.7L336.1 196.7L336.1 205.4L336.2 205.4Q336.5 204.7 337.2 204.0Q337.8 203.3 338.7 202.8Q339.7 202.3 341.2 202.3L341.2 202.3Q343.1 202.3 344.7 203.3Q346.3 204.3 347.3 206.3Q348.3 208.2 348.3 211.2L348.3 211.2Q348.3 214.2 347.3 216.2Q346.4 218.2 344.8 219.2Q343.2 220.2 341.2 220.2L341.2 220.2Q339.8 220.2 338.8 219.8Q337.8 219.3 337.2 218.6Q336.6 217.9 336.2 217.2L336.2 217.2L336.0 217.2L336.0 220.0ZM336.0 211.2L336.0 211.2Q336.0 212.8 336.4 213.9Q336.8 215.1 337.7 215.7Q338.5 216.4 339.6 216.4L339.6 216.4Q340.8 216.4 341.6 215.7Q342.5 215.1 342.9 213.9Q343.3 212.7 343.3 211.2L343.3 211.2Q343.3 209.7 342.9 208.6Q342.5 207.4 341.7 206.8Q340.8 206.1 339.6 206.1L339.6 206.1Q338.5 206.1 337.7 206.7Q336.8 207.4 336.4 208.5Q336.0 209.7 336.0 211.2ZM368.9 203.4L364.2 203.4Q364.1 202.0 363.0 201.2Q362.0 200.5 360.2 200.5L360.2 200.5Q359.0 200.5 358.2 200.8Q357.4 201.1 356.9 201.7Q356.5 202.3 356.5 203.1L356.5 203.1Q356.5 203.7 356.7 204.2Q357.0 204.6 357.5 205.0Q358.1 205.3 358.7 205.5Q359.4 205.8 360.2 206.0L360.2 206.0L362.3 206.5Q363.8 206.8 365.0 207.4Q366.3 207.9 367.3 208.8Q368.2 209.6 368.7 210.7Q369.2 211.8 369.2 213.3L369.2 213.3Q369.2 215.4 368.1 217.0Q367.1 218.6 365.1 219.4Q363.0 220.3 360.2 220.3L360.2 220.3Q357.4 220.3 355.3 219.4Q353.2 218.6 352.0 216.9Q350.9 215.2 350.8 212.6L350.8 212.6L355.6 212.6Q355.7 213.8 356.3 214.6Q356.9 215.4 357.9 215.8Q358.9 216.2 360.1 216.2L360.1 216.2Q361.4 216.2 362.3 215.8Q363.2 215.4 363.8 214.8Q364.3 214.1 364.3 213.3L364.3 213.3Q364.3 212.5 363.8 212.0Q363.3 211.4 362.5 211.1Q361.6 210.7 360.3 210.4L360.3 210.4L357.8 209.7Q354.8 209.0 353.1 207.5Q351.4 206.0 351.4 203.4L351.4 203.4Q351.4 201.3 352.6 199.7Q353.7 198.1 355.7 197.2Q357.7 196.4 360.3 196.4L360.3 196.4Q362.8 196.4 364.8 197.2Q366.7 198.1 367.8 199.7Q368.9 201.3 368.9 203.4L368.9 203.4ZM377.3 220.0L372.4 220.0L372.4 202.5L377.3 202.5L377.3 220.0ZM374.9 200.2L374.9 200.2Q373.8 200.2 373.0 199.5Q372.3 198.8 372.3 197.8L372.3 197.8Q372.3 196.8 373.0 196.1Q373.8 195.3 374.9 195.3L374.9 195.3Q375.9 195.3 376.7 196.1Q377.5 196.8 377.5 197.8L377.5 197.8Q377.5 198.8 376.7 199.5Q375.9 200.2 374.9 200.2ZM379.9 202.5L390.4 202.5L390.4 206.1L379.9 206.1L379.9 202.5ZM382.3 215.2L382.3 198.3L387.1 198.3L387.1 214.6Q387.1 215.3 387.3 215.6Q387.5 216.0 387.9 216.1Q388.3 216.3 388.8 216.3L388.8 216.3Q389.1 216.3 389.5 216.2Q389.8 216.2 390.0 216.1L390.0 216.1L390.7 219.7Q390.4 219.8 389.7 220.0Q389.1 220.2 388.1 220.2L388.1 220.2Q386.4 220.3 385.1 219.7Q383.7 219.2 383.0 218.1Q382.3 216.9 382.3 215.2L382.3 215.2ZM401.3 220.3L401.3 220.3Q398.6 220.3 396.7 219.2Q394.8 218.1 393.7 216.1Q392.7 214.1 392.7 211.3L392.7 211.3Q392.7 208.6 393.7 206.6Q394.8 204.5 396.7 203.4Q398.6 202.3 401.1 202.3L401.1 202.3Q402.9 202.3 404.4 202.8Q405.9 203.4 407.0 204.5Q408.1 205.6 408.7 207.2Q409.4 208.9 409.4 211.1L409.4 211.1L409.4 212.5L394.6 212.5L394.6 209.5L404.8 209.5Q404.8 208.4 404.3 207.6Q403.9 206.8 403.1 206.3Q402.3 205.9 401.2 205.9L401.2 205.9Q400.1 205.9 399.3 206.4Q398.4 206.9 398.0 207.7Q397.5 208.6 397.5 209.6L397.5 209.6L397.5 212.5Q397.5 213.8 397.9 214.7Q398.4 215.7 399.3 216.2Q400.2 216.7 401.4 216.7L401.4 216.7Q402.2 216.7 402.9 216.5Q403.6 216.2 404.0 215.8Q404.5 215.3 404.8 214.7L404.8 214.7L409.3 215.0Q408.9 216.6 407.9 217.8Q406.8 219.0 405.2 219.6Q403.5 220.3 401.3 220.3Z M422.8 220.2L422.8 220.2Q421.6 220.2 420.8 219.4Q420.0 218.6 420.0 217.5L420.0 217.5Q420.0 216.4 420.8 215.6Q421.6 214.8 422.8 214.8L422.8 214.8Q423.9 214.8 424.7 215.6Q425.5 216.4 425.5 217.5L425.5 217.5Q425.5 218.3 425.1 218.9Q424.7 219.5 424.1 219.9Q423.5 220.2 422.8 220.2ZM422.8 208.0L422.8 208.0Q421.6 208.0 420.8 207.2Q420.0 206.4 420.0 205.3L420.0 205.3Q420.0 204.2 420.8 203.4Q421.6 202.6 422.8 202.6L422.8 202.6Q423.9 202.6 424.7 203.4Q425.5 204.2 425.5 205.3L425.5 205.3Q425.5 206.1 425.1 206.7Q424.7 207.3 424.1 207.7Q423.5 208.0 422.8 208.0ZM437.6 210.6L437.6 210.6Q437.6 214.9 436.5 218.4Q435.4 222.0 433.0 225.0L433.0 225.0L428.4 225.0Q429.3 223.9 430.0 222.3Q430.8 220.6 431.4 218.7Q431.9 216.8 432.3 214.7Q432.6 212.6 432.6 210.6L432.6 210.6Q432.6 207.9 432.0 205.2Q431.5 202.4 430.5 200.1Q429.6 197.7 428.4 196.2L428.4 196.2L433.0 196.2Q435.4 199.3 436.5 202.8Q437.6 206.4 437.6 210.6Z "/><mask id="satori_om-id-2"><rect x="50" y="259" width="700" height="36" fill="#fff"/></mask><path fill="#000000a0" d="M66.1 293.4L66.1 293.4Q62.7 293.4 60.0 292.4Q57.4 291.5 55.6 289.7Q53.7 288.0 52.8 285.4Q51.8 282.9 51.8 279.6L51.8 279.6Q51.8 276.4 52.8 273.8Q53.7 271.1 55.6 269.3Q57.4 267.4 60.1 266.4Q62.8 265.4 66.2 265.4L66.2 265.4Q69.4 265.4 71.9 266.3Q74.4 267.2 76.1 268.9Q77.9 270.6 78.8 273.0Q79.7 275.3 79.7 278.2L79.7 278.2Q79.7 280.1 79.4 281.8Q79.0 283.4 78.3 284.6Q77.5 285.9 76.3 286.6Q75.1 287.3 73.4 287.4L73.4 287.4Q72.1 287.5 71.3 287.2Q70.6 286.9 70.2 286.4Q69.8 285.8 69.7 285.1L69.7 285.1L69.5 285.1Q69.3 285.7 68.5 286.2Q67.8 286.7 66.7 287.0Q65.6 287.3 64.4 287.2L64.4 287.2Q63.2 287.2 62.1 286.7Q60.9 286.1 60.1 285.2Q59.2 284.2 58.7 282.8Q58.2 281.3 58.2 279.5L58.2 279.5Q58.2 277.6 58.7 276.2Q59.2 274.9 60.1 273.9Q61.0 273.0 62.0 272.5Q63.1 271.9 64.1 271.8L64.1 271.8Q65.3 271.6 66.4 271.8Q67.5 272.0 68.2 272.4Q69.0 272.8 69.2 273.2L69.2 273.2L69.3 273.2L69.3 272.0L72.6 272.0L72.6 282.4Q72.6 283.2 73.0 283.6Q73.3 284.0 73.8 284.0L73.8 284.0Q74.6 284.0 75.1 283.3Q75.6 282.7 75.8 281.3Q76.1 280.0 76.1 277.9L76.1 277.9Q76.1 275.9 75.5 274.4Q75.0 272.9 74.1 271.8Q73.1 270.7 71.9 270.1Q70.6 269.4 69.2 269.1Q67.7 268.8 66.2 268.8L66.2 268.8Q63.5 268.8 61.5 269.6Q59.6 270.4 58.2 271.8Q56.9 273.3 56.3 275.2Q55.6 277.2 55.6 279.5L55.6 279.5Q55.6 282.0 56.3 283.9Q57.0 285.9 58.4 287.2Q59.7 288.5 61.7 289.2Q63.7 289.9 66.3 289.9L66.3 289.9Q67.6 289.9 68.7 289.7Q69.9 289.5 70.9 289.3Q71.8 289.0 72.4 288.8L72.4 288.8L73.4 291.9Q72.8 292.3 71.6 292.6Q70.5 293.0 69.0 293.2Q67.6 293.4 66.1 293.4ZM65.6 283.7L65.6 283.7Q66.9 283.7 67.7 283.2Q68.5 282.7 68.8 281.7Q69.1 280.8 69.1 279.3L69.1 279.3Q69.1 278.0 68.8 277.1Q68.5 276.3 67.7 275.8Q66.9 275.3 65.6 275.3L65.6 275.3Q64.4 275.3 63.6 275.8Q62.8 276.3 62.3 277.2Q61.9 278.1 61.9 279.3L61.9 279.3Q61.9 280.5 62.2 281.5Q62.6 282.5 63.4 283.1Q64.2 283.7 65.6 283.7ZM87.4 287.4L87.4 287.4Q85.8 287.4 84.6 286.8Q83.4 286.3 82.7 285.2Q82.0 284.1 82.0 282.5L82.0 282.5Q82.0 281.1 82.5 280.2Q83.0 279.3 83.8 278.7Q84.7 278.2 85.8 277.9Q86.9 277.6 88.1 277.5L88.1 277.5Q89.5 277.3 90.4 277.2Q91.3 277.1 91.7 276.8Q92.1 276.5 92.1 276.0L92.1 276.0L92.1 275.9Q92.1 274.9 91.4 274.4Q90.8 273.8 89.6 273.8L89.6 273.8Q88.4 273.8 87.7 274.4Q87.0 274.9 86.7 275.7L86.7 275.7L82.5 275.4Q82.9 273.9 83.8 272.8Q84.7 271.7 86.2 271.1Q87.7 270.5 89.7 270.5L89.7 270.5Q91.0 270.5 92.3 270.8Q93.5 271.1 94.5 271.8Q95.5 272.5 96.0 273.5Q96.6 274.6 96.6 276.0L96.6 276.0L96.6 287.1L92.3 287.1L92.3 284.8L92.2 284.8Q91.8 285.6 91.1 286.2Q90.5 286.7 89.5 287.1Q88.6 287.4 87.4 287.4ZM88.7 284.3L88.7 284.3Q89.7 284.3 90.5 283.9Q91.2 283.5 91.7 282.8Q92.1 282.1 92.1 281.2L92.1 281.2L92.1 279.5Q91.9 279.6 91.5 279.7Q91.2 279.9 90.7 279.9Q90.2 280.0 89.8 280.1Q89.3 280.2 88.9 280.2L88.9 280.2Q88.1 280.3 87.6 280.6Q87.0 280.9 86.6 281.3Q86.3 281.7 86.3 282.4L86.3 282.4Q86.3 283.3 87.0 283.8Q87.6 284.3 88.7 284.3ZM106.2 287.3L106.2 287.3Q104.3 287.3 102.8 286.4Q101.3 285.4 100.4 283.5Q99.5 281.7 99.5 278.9L99.5 278.9Q99.5 276.1 100.4 274.2Q101.3 272.4 102.8 271.4Q104.4 270.5 106.2 270.5L106.2 270.5Q107.5 270.5 108.4 271.0Q109.4 271.4 109.9 272.1Q110.5 272.8 110.8 273.5L110.8 273.5L110.9 273.5L110.9 265.3L115.5 265.3L115.5 287.1L111.0 287.1L111.0 284.5L110.8 284.5Q110.5 285.1 109.9 285.8Q109.3 286.5 108.4 286.9Q107.5 287.3 106.2 287.3ZM107.6 283.7L107.6 283.7Q108.7 283.7 109.5 283.1Q110.2 282.5 110.6 281.4Q111.0 280.4 111.0 278.9L111.0 278.9Q111.0 277.4 110.6 276.4Q110.2 275.3 109.5 274.7Q108.7 274.1 107.6 274.1L107.6 274.1Q106.5 274.1 105.7 274.7Q105.0 275.3 104.6 276.4Q104.2 277.5 104.2 278.9L104.2 278.9Q104.2 280.3 104.6 281.4Q105.0 282.5 105.7 283.1Q106.5 283.7 107.6 283.7ZM123.9 287.4L123.9 287.4Q122.3 287.4 121.1 286.8Q119.8 286.3 119.1 285.2Q118.4 284.1 118.4 282.5L118.4 282.5Q118.4 281.1 118.9 280.2Q119.4 279.3 120.3 278.7Q121.2 278.2 122.3 277.9Q123.4 277.6 124.6 277.5L124.6 277.5Q126.0 277.3 126.9 277.2Q127.7 277.1 128.1 276.8Q128.5 276.5 128.5 276.0L128.5 276.0L128.5 275.9Q128.5 274.9 127.9 274.4Q127.3 273.8 126.1 273.8L126.1 273.8Q124.9 273.8 124.2 274.4Q123.4 274.9 123.2 275.7L123.2 275.7L119.0 275.4Q119.3 273.9 120.3 272.8Q121.2 271.7 122.7 271.1Q124.2 270.5 126.1 270.5L126.1 270.5Q127.5 270.5 128.7 270.8Q130.0 271.1 131.0 271.8Q131.9 272.5 132.5 273.5Q133.1 274.6 133.1 276.0L133.1 276.0L133.1 287.1L128.8 287.1L128.8 284.8L128.6 284.8Q128.2 285.6 127.6 286.2Q126.9 286.7 126.0 287.1Q125.1 287.4 123.9 287.4ZM125.2 284.3L125.2 284.3Q126.2 284.3 126.9 283.9Q127.7 283.5 128.1 282.8Q128.6 282.1 128.6 281.2L128.6 281.2L128.6 279.5Q128.4 279.6 128.0 279.7Q127.6 279.9 127.2 279.9Q126.7 280.0 126.2 280.1Q125.8 280.2 125.4 280.2L125.4 280.2Q124.6 280.3 124.0 280.6Q123.4 280.9 123.1 281.3Q122.8 281.7 122.8 282.4L122.8 282.4Q122.8 283.3 123.4 283.8Q124.1 284.3 125.2 284.3ZM141.1 287.1L136.6 287.1L136.6 270.7L141.0 270.7L141.0 273.6L141.2 273.6Q141.6 272.0 142.7 271.3Q143.7 270.5 145.1 270.5L145.1 270.5Q145.4 270.5 145.8 270.5Q146.2 270.6 146.5 270.6L146.5 270.6L146.5 274.7Q146.2 274.6 145.6 274.5Q145.1 274.4 144.6 274.4L144.6 274.4Q143.6 274.4 142.8 274.9Q142.0 275.3 141.6 276.1Q141.1 276.8 141.1 277.8L141.1 277.8L141.1 287.1ZM162.5 275.4L162.5 275.4L158.3 275.6Q158.2 275.1 157.9 274.7Q157.5 274.2 156.9 274.0Q156.4 273.7 155.6 273.7L155.6 273.7Q154.5 273.7 153.8 274.2Q153.1 274.6 153.1 275.3L153.1 275.3Q153.1 275.9 153.6 276.3Q154.0 276.7 155.2 277.0L155.2 277.0L158.1 277.6Q160.5 278.1 161.7 279.2Q162.9 280.2 162.9 282.0L162.9 282.0Q162.9 283.6 161.9 284.8Q161.0 286.0 159.3 286.7Q157.7 287.4 155.6 287.4L155.6 287.4Q152.3 287.4 150.4 286.0Q148.5 284.7 148.1 282.3L148.1 282.3L152.6 282.1Q152.8 283.1 153.6 283.6Q154.4 284.1 155.6 284.1L155.6 284.1Q156.8 284.1 157.5 283.7Q158.2 283.2 158.2 282.5L158.2 282.5Q158.2 281.8 157.7 281.4Q157.2 281.1 156.1 280.8L156.1 280.8L153.3 280.3Q150.9 279.8 149.7 278.6Q148.6 277.4 148.6 275.6L148.6 275.6Q148.6 274.0 149.4 272.9Q150.3 271.7 151.9 271.1Q153.4 270.5 155.5 270.5L155.5 270.5Q158.6 270.5 160.4 271.8Q162.2 273.1 162.5 275.4ZM170.3 277.6L170.3 277.6L170.3 287.1L165.7 287.1L165.7 265.3L170.1 265.3L170.1 273.6L170.3 273.6Q170.9 272.2 172.1 271.3Q173.3 270.5 175.2 270.5L175.2 270.5Q176.9 270.5 178.2 271.2Q179.5 272.0 180.2 273.4Q180.9 274.7 180.9 276.7L180.9 276.7L180.9 287.1L176.3 287.1L176.3 277.5Q176.3 276.0 175.6 275.1Q174.8 274.3 173.4 274.3L173.4 274.3Q172.5 274.3 171.8 274.7Q171.1 275.1 170.7 275.8Q170.3 276.6 170.3 277.6ZM182.6 287.1L196.9 287.1L196.9 290.5L182.6 290.5L182.6 287.1ZM204.6 287.1L200.1 287.1L200.1 270.7L204.4 270.7L204.4 273.6L204.6 273.6Q205.1 272.2 206.3 271.3Q207.5 270.5 209.2 270.5L209.2 270.5Q210.9 270.5 212.0 271.3Q213.2 272.2 213.6 273.6L213.6 273.6L213.8 273.6Q214.3 272.2 215.6 271.4Q216.9 270.5 218.7 270.5L218.7 270.5Q221.0 270.5 222.5 272.0Q223.9 273.4 223.9 276.1L223.9 276.1L223.9 287.1L219.4 287.1L219.4 277.0Q219.4 275.6 218.6 274.9Q217.9 274.2 216.8 274.2L216.8 274.2Q215.6 274.2 214.9 275.0Q214.2 275.8 214.2 277.1L214.2 277.1L214.2 287.1L209.8 287.1L209.8 276.9Q209.8 275.7 209.1 275.0Q208.4 274.2 207.3 274.2L207.3 274.2Q206.6 274.2 205.9 274.6Q205.3 275.0 205.0 275.7Q204.6 276.4 204.6 277.3L204.6 277.3L204.6 287.1ZM232.1 287.4L232.1 287.4Q230.6 287.4 229.3 286.8Q228.1 286.3 227.4 285.2Q226.7 284.1 226.7 282.5L226.7 282.5Q226.7 281.1 227.2 280.2Q227.7 279.3 228.6 278.7Q229.4 278.2 230.5 277.9Q231.6 277.6 232.8 277.5L232.8 277.5Q234.3 277.3 235.1 277.2Q236.0 277.1 236.4 276.8Q236.8 276.5 236.8 276.0L236.8 276.0L236.8 275.9Q236.8 274.9 236.2 274.4Q235.5 273.8 234.4 273.8L234.4 273.8Q233.2 273.8 232.4 274.4Q231.7 274.9 231.5 275.7L231.5 275.7L227.3 275.4Q227.6 273.9 228.5 272.8Q229.5 271.7 231.0 271.1Q232.4 270.5 234.4 270.5L234.4 270.5Q235.8 270.5 237.0 270.8Q238.3 271.1 239.2 271.8Q240.2 272.5 240.8 273.5Q241.3 274.6 241.3 276.0L241.3 276.0L241.3 287.1L237.0 287.1L237.0 284.8L236.9 284.8Q236.5 285.6 235.9 286.2Q235.2 286.7 234.3 287.1Q233.3 287.4 232.1 287.4ZM233.4 284.3L233.4 284.3Q234.4 284.3 235.2 283.9Q236.0 283.5 236.4 282.8Q236.8 282.1 236.8 281.2L236.8 281.2L236.8 279.5Q236.6 279.6 236.3 279.7Q235.9 279.9 235.4 279.9Q235.0 280.0 234.5 280.1Q234.1 280.2 233.7 280.2L233.7 280.2Q232.9 280.3 232.3 280.6Q231.7 280.9 231.4 281.3Q231.0 281.7 231.0 282.4L231.0 282.4Q231.0 283.3 231.7 283.8Q232.4 284.3 233.4 284.3ZM249.4 287.1L244.9 287.1L244.9 270.7L249.2 270.7L249.2 273.6L249.4 273.6Q249.9 272.2 251.1 271.3Q252.3 270.5 253.9 270.5L253.9 270.5Q255.6 270.5 256.8 271.3Q258.0 272.2 258.4 273.6L258.4 273.6L258.6 273.6Q259.1 272.2 260.4 271.4Q261.7 270.5 263.5 270.5L263.5 270.5Q265.8 270.5 267.2 272.0Q268.7 273.4 268.7 276.1L268.7 276.1L268.7 287.1L264.1 287.1L264.1 277.0Q264.1 275.6 263.4 274.9Q262.7 274.2 261.6 274.2L261.6 274.2Q260.4 274.2 259.7 275.0Q259.0 275.8 259.0 277.1L259.0 277.1L259.0 287.1L254.6 287.1L254.6 276.9Q254.6 275.7 253.9 275.0Q253.2 274.2 252.1 274.2L252.1 274.2Q251.3 274.2 250.7 274.6Q250.1 275.0 249.8 275.7Q249.4 276.4 249.4 277.3L249.4 277.3L249.4 287.1ZM279.6 293.6L279.6 293.6Q277.4 293.6 275.8 293.0Q274.3 292.4 273.3 291.3Q272.4 290.3 272.1 289.0L272.1 289.0L276.3 288.4Q276.5 288.9 276.9 289.3Q277.3 289.8 278.0 290.0Q278.7 290.3 279.7 290.3L279.7 290.3Q281.2 290.3 282.2 289.6Q283.1 288.9 283.1 287.2L283.1 287.2L283.1 284.2L282.9 284.2Q282.6 284.9 282.0 285.5Q281.4 286.1 280.5 286.5Q279.6 286.8 278.3 286.8L278.3 286.8Q276.4 286.8 274.9 286.0Q273.4 285.1 272.5 283.4Q271.6 281.6 271.6 278.9L271.6 278.9Q271.6 276.1 272.5 274.2Q273.4 272.4 274.9 271.4Q276.4 270.5 278.2 270.5L278.2 270.5Q279.6 270.5 280.6 271.0Q281.5 271.4 282.0 272.1Q282.6 272.8 282.9 273.5L282.9 273.5L283.1 273.5L283.1 270.7L287.6 270.7L287.6 287.2Q287.6 289.3 286.6 290.7Q285.6 292.1 283.8 292.8Q281.9 293.6 279.6 293.6ZM279.7 283.4L279.7 283.4Q280.8 283.4 281.6 282.9Q282.3 282.3 282.7 281.3Q283.1 280.3 283.1 278.8L283.1 278.8Q283.1 277.4 282.7 276.3Q282.3 275.3 281.6 274.7Q280.8 274.1 279.7 274.1L279.7 274.1Q278.6 274.1 277.8 274.7Q277.0 275.3 276.7 276.4Q276.3 277.4 276.3 278.8L276.3 278.8Q276.3 280.3 276.7 281.3Q277.1 282.3 277.8 282.9Q278.6 283.4 279.7 283.4ZM295.9 287.4L295.9 287.4Q294.3 287.4 293.1 286.8Q291.9 286.3 291.2 285.2Q290.5 284.1 290.5 282.5L290.5 282.5Q290.5 281.1 291.0 280.2Q291.5 279.3 292.3 278.7Q293.2 278.2 294.3 277.9Q295.4 277.6 296.6 277.5L296.6 277.5Q298.0 277.3 298.9 277.2Q299.8 277.1 300.2 276.8Q300.6 276.5 300.6 276.0L300.6 276.0L300.6 275.9Q300.6 274.9 299.9 274.4Q299.3 273.8 298.1 273.8L298.1 273.8Q296.9 273.8 296.2 274.4Q295.5 274.9 295.2 275.7L295.2 275.7L291.0 275.4Q291.4 273.9 292.3 272.8Q293.2 271.7 294.7 271.1Q296.2 270.5 298.2 270.5L298.2 270.5Q299.5 270.5 300.8 270.8Q302.0 271.1 303.0 271.8Q304.0 272.5 304.5 273.5Q305.1 274.6 305.1 276.0L305.1 276.0L305.1 287.1L300.8 287.1L300.8 284.8L300.7 284.8Q300.3 285.6 299.6 286.2Q299.0 286.7 298.0 287.1Q297.1 287.4 295.9 287.4ZM297.2 284.3L297.2 284.3Q298.2 284.3 299.0 283.9Q299.7 283.5 300.2 282.8Q300.6 282.1 300.6 281.2L300.6 281.2L300.6 279.5Q300.4 279.6 300.0 279.7Q299.7 279.9 299.2 279.9Q298.7 280.0 298.3 280.1Q297.8 280.2 297.4 280.2L297.4 280.2Q296.6 280.3 296.1 280.6Q295.5 280.9 295.1 281.3Q294.8 281.7 294.8 282.4L294.8 282.4Q294.8 283.3 295.5 283.8Q296.1 284.3 297.2 284.3ZM313.2 287.1L308.6 287.1L308.6 270.7L313.2 270.7L313.2 287.1ZM310.9 268.6L310.9 268.6Q309.9 268.6 309.2 267.9Q308.5 267.3 308.5 266.3L308.5 266.3Q308.5 265.4 309.2 264.7Q309.9 264.0 310.9 264.0L310.9 264.0Q311.9 264.0 312.6 264.7Q313.4 265.4 313.4 266.3L313.4 266.3Q313.4 267.3 312.6 267.9Q311.9 268.6 310.9 268.6ZM321.3 277.6L321.3 277.6L321.3 287.1L316.8 287.1L316.8 270.7L321.1 270.7L321.1 273.6L321.3 273.6Q321.9 272.2 323.1 271.3Q324.4 270.5 326.2 270.5L326.2 270.5Q327.9 270.5 329.2 271.2Q330.5 272.0 331.2 273.4Q331.9 274.8 331.9 276.7L331.9 276.7L331.9 287.1L327.3 287.1L327.3 277.5Q327.4 276.0 326.6 275.1Q325.8 274.3 324.4 274.3L324.4 274.3Q323.5 274.3 322.8 274.7Q322.1 275.1 321.7 275.8Q321.3 276.6 321.3 277.6Z "/></svg>